PathFileType	3	(X/Y/Z)	F:\ViconData\AntennenMessung\Messung1\Session1\ID13.trc
DataRate	CameraRate	NumFrames	NumMarkers	Units	OrigDataRate	OrigDataStartFrame	OrigNumFrames
120.0	120.0	4	70	mm	120.0	115	912	
Frame#	Time	Ashort			Along			Atop			A4			Bshort			Blong			Btop			B4			Cshort			Clong			Ctop			C4			Dshort			Dlong			Dtop			D4			Eshort			Elong			Etop			E4			Fshort			Flong			Ftop			F4			Gshort			Glong			Gtop			G4			Hshort			Hlong			Htop			H4			I1			I2			I3			I4			I5			WandAshort			WandAlong			WandAtop			WandA4			WandA15			WandBshort			WandB4			WandB5			WandBtop			WandBlong			WandCshort			WandClong			WandCtop			WandC4			WandC5			Acenter			Aantenna			Bcenter			Bantenna			Ccenter			Cantenna			Dcenter			Dantenna			Ecenter			Eantenna			Fcenter			Fantenna			Gcenter			Gantenna			Hcenter			Hantenna			Icenter			Iantenna			
		X1	Y1	Z1	X2	Y2	Z2	X3	Y3	Z3	X4	Y4	Z4	X5	Y5	Z5	X6	Y6	Z6	X7	Y7	Z7	X8	Y8	Z8	X9	Y9	Z9	X10	Y10	Z10	X11	Y11	Z11	X12	Y12	Z12	X13	Y13	Z13	X14	Y14	Z14	X15	Y15	Z15	X16	Y16	Z16	X17	Y17	Z17	X18	Y18	Z18	X19	Y19	Z19	X20	Y20	Z20	X21	Y21	Z21	X22	Y22	Z22	X23	Y23	Z23	X24	Y24	Z24	X25	Y25	Z25	X26	Y26	Z26	X27	Y27	Z27	X28	Y28	Z28	X29	Y29	Z29	X30	Y30	Z30	X31	Y31	Z31	X32	Y32	Z32	X33	Y33	Z33	X34	Y34	Z34	X35	Y35	Z35	X36	Y36	Z36	X37	Y37	Z37	X38	Y38	Z38	X39	Y39	Z39	X40	Y40	Z40	X41	Y41	Z41	X42	Y42	Z42	X43	Y43	Z43	X44	Y44	Z44	X45	Y45	Z45	X46	Y46	Z46	X47	Y47	Z47	X48	Y48	Z48	X49	Y49	Z49	X50	Y50	Z50	X51	Y51	Z51	X52	Y52	Z52	X53	Y53	Z53	X54	Y54	Z54	X55	Y55	Z55	X56	Y56	Z56	X57	Y57	Z57	X58	Y58	Z58	X59	Y59	Z59	X60	Y60	Z60	X61	Y61	Z61	X62	Y62	Z62	X63	Y63	Z63	X64	Y64	Z64	X65	Y65	Z65	X66	Y66	Z66	X67	Y67	Z67	X68	Y68	Z68	X69	Y69	Z69	X70	Y70	Z70	
115	0.95	-1038.2874	214.61757	-1644.1323	-1109.3375	204.05939	-1599.3594	-1063.5308	172.90973	-1626.0452	-1054.1531	262.26514	-1634.9047	-1352.7496	235.41048	1003.6862	-1281.3842	227.43901	1052.1471	-1322.722	194.06879	1020.7821	-1284.6813	287.79541	1052.7892	814.02399	187.51534	1209.452	892.3512	178.69066	1179.0818	844.42157	145.52167	1198.2363	860.92401	292.20251	1167.3677	1115.8419	209.98674	-1401.8116	1056.2996	193.98695	-1460.1812	1095.1268	162.332	-1423.8967	1069.7827	238.80504	-1425.8782	-1204.5488	1686.0005	-1563.2336	-1129.1429	1688.3191	-1606.0664	-1173.1663	1724.4977	-1581.9414	-1134.0325	1581.0637	-1603.8995	-1239.5597	1699.0005	1119.3943	-1309.223	1698.5298	1071.8049	-1270.4928	1736.3175	1096.8722	-1244.9529	1594.2664	1106.7202	988.88708	1664.2751	1162.2477	957.48608	1700.4033	1183.8118	922.20398	1662.2609	1214.9314	939.81824	1659.4093	1159.9398	999.15015	1668.4546	-1579.4303	1058.9408	1670.1533	-1518.7207	1025.0593	1708.045	-1551.1917	1059.3186	1672.1436	-1585.462	-187.68802	1177.2869	-236.62123	-194.21645	1179.1212	-152.42593	-191.52373	1215.0717	-199.66055	-222.38641	1175.6206	-202.0864	-142.53838	1180.454	-196.07822																																														-1068.4731	210.1319	-1625.1105	-1073.6049	248.78062	-1624.1401	-1321.3606	231.90436	1025.001	-1319.9668	270.6394	1029.3199	847.96753	183.6911	1196.2909	851.57056	222.47397	1194.3142	1088.707	202.69524	-1428.412	1082.618	240.9782	-1432.6945	-1171.916	1687.0038	-1581.7699	-1170.6163	1648.0259	-1581.5917	-1270.9677	1698.7882	1097.9385	-1271.4608	1659.8071	1099.0459	952.91815	1705.6587	1186.9486	972.85541	1733.8291	1168.7847	1026.5677	1669.2335	-1551.5913	1028.0822	1630.265	-1551.9926	-190.62177	1178.1112	-198.78535	-189.67059	1139.1337	-197.8624
116	0.95833333	-1038.2684	214.5858	-1644.1421	-1109.3514	204.09367	-1599.3961	-1063.525	172.85638	-1626.0671	-1054.1603	262.24615	-1634.9281	-1352.7439	235.39902	1003.7134	-1281.4172	227.43787	1052.1808	-1322.7031	194.18723	1020.7478	-1284.5454	287.89474	1052.6848	814.04681	187.45102	1209.4922	892.32861	178.32286	1179.2518	844.539	145.45421	1198.3131	861.06085	292.23248	1167.6603	1115.8438	209.97008	-1401.7974	1056.2317	194.04959	-1460.1719	1095.1829	162.43073	-1423.8707	1069.7671	238.79527	-1425.8607	-1204.606	1686.0609	-1563.1116	-1129.1437	1688.2776	-1606.0436	-1173.161	1724.4875	-1581.9341	-1133.7649	1581.0195	-1603.7529	-1239.3047	1698.6299	1119.2786	-1309.249	1698.5742	1071.8208	-1270.5154	1736.3705	1096.8905	-1245.7509	1593.0432	1110.7001	988.82422	1664.231	1162.2438	957.22241	1700.5392	1183.79	922.68195	1662.1794	1215.035	939.82074	1659.4343	1159.8665	999.12079	1668.4384	-1579.4347	1058.9457	1670.1515	-1518.726	1025.0675	1708.0427	-1551.1869	1059.3206	1672.1464	-1585.4647	-187.67168	1177.2944	-236.62009	-194.30806	1179.0746	-152.54649	-191.52396	1215.0688	-199.67833	-222.38855	1175.6145	-202.08374	-142.53607	1180.4475	-196.07198																																														-1068.4467	210.13138	-1625.1451	-1073.55	248.78418	-1624.1891	-1321.3939	231.89989	1025.016	-1320.0497	270.62946	1029.3993	848.19434	183.46918	1196.3009	851.92218	222.23633	1194.2488	1088.7671	202.73874	-1428.3119	1082.6725	241.02786	-1432.5309	-1171.9286	1687.0206	-1581.7023	-1170.6465	1648.0426	-1581.4611	-1271.0575	1698.6045	1097.7339	-1271.6173	1659.6183	1098.6047	952.99567	1705.3954	1186.6719	972.7243	1733.5208	1168.2126	1026.5737	1669.2244	-1551.5759	1028.0861	1630.2557	-1551.9666	-190.65489	1178.0945	-198.82684	-189.73871	1139.1157	-197.9292
117	0.96666667	-1038.2638	214.60718	-1644.1069	-1109.4088	204.21117	-1599.3954	-1063.5422	172.88628	-1626.0112	-1054.1686	262.28128	-1634.9287	-1352.7576	235.39891	1003.5851	-1281.436	227.38539	1052.1846	-1322.7191	194.1219	1020.8275	-1284.531	287.90973	1052.704	814.03217	187.5289	1209.4897	892.41528	178.52531	1179.094	844.49316	145.48462	1198.3054	860.91327	292.31729	1167.3893	1115.8236	209.97595	-1401.7831	1056.2084	194.05377	-1460.1746	1095.1571	162.3909	-1423.8428	1069.751	238.79871	-1425.8998	-1204.5511	1685.9991	-1563.2416	-1129.1328	1688.2979	-1606.0458	-1173.1641	1724.4894	-1581.9399	-1134.0211	1581.0769	-1603.9178	-1239.5582	1699.0118	1119.3885	-1309.2202	1698.547	1071.8073	-1270.4847	1736.3319	1096.8856	-1245.7817	1593.1089	1110.7327	988.81842	1664.2249	1162.2284	957.22534	1700.5946	1183.7878	922.10852	1662.2203	1214.8252	939.82452	1659.4086	1159.8669	999.10297	1668.4542	-1579.4392	1058.936	1670.1531	-1518.7311	1025.0663	1708.0425	-1551.1819	1059.3186	1672.1462	-1585.4613	-187.67932	1177.2979	-236.60814	-194.21353	1179.1274	-152.43799	-191.5282	1215.0641	-199.68549	-222.40477	1175.6501	-202.07785	-142.52046	1180.4595	-196.06444																																														-1068.4459	210.19682	-1625.1388	-1073.5265	248.85391	-1624.2347	-1321.3241	231.86711	1025.0043	-1319.8927	270.60437	1029.2908	848.08899	183.6169	1196.2828	851.7453	222.39062	1194.2266	1088.7479	202.74451	-1428.3029	1082.6665	241.03429	-1432.5349	-1171.9199	1686.9937	-1581.7616	-1170.6267	1648.0155	-1581.5762	-1270.9563	1698.8022	1097.9426	-1271.4462	1659.8208	1099.0406	952.88239	1705.5941	1186.7513	972.83997	1733.7228	1168.545	1026.5662	1669.2339	-1551.5742	1028.0724	1630.265	-1551.9683	-190.61351	1178.1194	-198.81136	-189.6485	1139.1422	-197.88913
118	0.975	-1038.2419	214.60898	-1644.1058	-1109.3604	204.02989	-1599.3287	-1063.5776	172.89801	-1626.0371	-1054.1508	262.29156	-1634.9086	-1352.8071	235.39539	1003.6335	-1281.3885	227.44554	1052.2272	-1322.7343	194.15236	1020.7597	-1284.6505	287.8656	1052.7897	814.01331	187.60464	1209.4971	892.44507	178.51909	1179.0496	844.3941	145.44402	1198.3307	860.88965	292.3399	1167.4008	1115.8429	209.97299	-1401.7954	1056.2679	194.06287	-1460.2166	1095.1733	162.38002	-1423.877	1069.7836	238.77107	-1425.8899	-1204.547	1685.9969	-1563.2455	-1129.1616	1688.2639	-1606.0063	-1173.1575	1724.4902	-1581.9312	-1133.7689	1581.0178	-1603.7531	-1239.5663	1699.0072	1119.4091	-1309.2936	1698.6353	1071.8407	-1270.4395	1736.2634	1096.8495	-1245.0526	1593.8451	1106.4359	988.79236	1664.177	1162.2139	957.46136	1700.3704	1183.8074	922.15771	1662.2488	1214.9165	939.80194	1659.3862	1159.8306	999.10608	1668.4324	-1579.4105	1058.9315	1670.147	-1518.7186	1025.0485	1708.0414	-1551.1882	1059.3047	1672.144	-1585.4597	-187.67656	1177.295	-236.61681	-194.20956	1179.1315	-152.44325	-191.50357	1215.1063	-199.68201	-222.41992	1175.6522	-202.06606	-142.53169	1180.4734	-196.06326																																														-1068.496	210.10858	-1625.0574	-1073.6049	248.75912	-1624.0398	-1321.4133	231.90082	1024.994	-1320.0579	270.63434	1029.3389	848.02997	183.66412	1196.2916	851.7182	222.43422	1194.2234	1088.7722	202.74345	-1428.3418	1082.6997	241.03426	-1432.5773	-1171.926	1686.9778	-1581.749	-1170.6467	1647.9993	-1581.5599	-1271.0005	1698.8395	1097.9644	-1271.5848	1659.8611	1099.1257	952.9386	1705.5947	1186.9244	972.91882	1733.7312	1168.7546	1026.5487	1669.2188	-1551.5703	1028.0548	1630.2498	-1551.9537	-190.61121	1178.12	-198.80582	-189.67079	1139.1423	-197.88245
